<svg width="24" height="24" viewBox="0 0 24 24" fill="none" xmlns="http://www.w3.org/2000/svg">
<rect width="24" height="24" fill="white"/>
<path fill-rule="evenodd" clip-rule="evenodd" d="M12 3.5C11.5858 3.5 11.25 3.83579 11.25 4.25V11.25H4.25C3.83579 11.25 3.5 11.5858 3.5 12C3.5 12.4142 3.83579 12.75 4.25 12.75H11.25V19.75C11.25 20.1642 11.5858 20.5 12 20.5C12.4142 20.5 12.75 20.1642 12.75 19.75V12.75H19.75C20.1642 12.75 20.5 12.4142 20.5 12C20.5 11.5858 20.1642 11.25 19.75 11.25H12.75V4.25C12.75 3.83579 12.4142 3.5 12 3.5Z" fill="#424852"/>
</svg>
