<svg width="11" height="11" viewBox="0 0 11 11" fill="none" xmlns="http://www.w3.org/2000/svg">
<circle cx="5.5" cy="5.5" r="5.5" fill="#8C9EFF"/>
<path d="M5.79343 6.51276H4.96439L4.8125 3.09375H5.94531L5.79343 6.51276ZM4.8125 7.70977C4.8125 7.48996 4.86735 7.33704 4.97704 7.25103C5.08674 7.16024 5.21964 7.11484 5.37574 7.11484C5.52763 7.11484 5.65631 7.16024 5.76178 7.25103C5.87148 7.33704 5.92633 7.48996 5.92633 7.70977C5.92633 7.92002 5.87148 8.07293 5.76178 8.1685C5.65631 8.25929 5.52763 8.30469 5.37574 8.30469C5.21964 8.30469 5.08674 8.25929 4.97704 8.1685C4.86735 8.07293 4.8125 7.92002 4.8125 7.70977Z" fill="white"/>
</svg>
