<svg width="24" height="24" viewBox="0 0 24 24" fill="none" xmlns="http://www.w3.org/2000/svg">
<g clip-path="url(#clip0_6340_11146)">
<path fill-rule="evenodd" clip-rule="evenodd" d="M7.5013 6.16536C6.18963 6.16536 5.1263 7.22869 5.1263 8.54036C5.1263 9.85204 6.18963 10.9154 7.5013 10.9154C8.81298 10.9154 9.8763 9.85204 9.8763 8.54036C9.8763 7.22869 8.81298 6.16536 7.5013 6.16536ZM3.54297 8.54036C3.54297 6.35424 5.31518 4.58203 7.5013 4.58203C9.68743 4.58203 11.4596 6.35424 11.4596 8.54036C11.4596 10.7265 9.68743 12.4987 7.5013 12.4987C5.31518 12.4987 3.54297 10.7265 3.54297 8.54036Z" fill="#292B31"/>
<path fill-rule="evenodd" clip-rule="evenodd" d="M7.50155 14.8763C4.77628 14.8763 3.34365 15.842 2.62895 17.0119C2.38022 17.4191 2.44278 17.8032 2.74644 18.156C3.07769 18.5409 3.67668 18.8346 4.33488 18.8346H10.6682C11.3264 18.8346 11.9254 18.5409 12.2567 18.156C12.5603 17.8032 12.6229 17.4191 12.3742 17.0119C11.6594 15.842 10.2268 14.8763 7.50155 14.8763ZM1.27777 16.1865C2.34597 14.4379 4.36405 13.293 7.50155 13.293C10.6391 13.293 12.6571 14.4379 13.7253 16.1865C14.3883 17.2718 14.1345 18.4013 13.4568 19.1889C12.8065 19.9444 11.7589 20.418 10.6682 20.418H4.33488C3.24418 20.418 2.19656 19.9444 1.54635 19.1889C0.868548 18.4013 0.614796 17.2718 1.27777 16.1865Z" fill="#292B31"/>
<path fill-rule="evenodd" clip-rule="evenodd" d="M16.5013 6.16536C15.1896 6.16536 14.1263 7.22869 14.1263 8.54036C14.1263 9.85204 15.1896 10.9154 16.5013 10.9154C17.813 10.9154 18.8763 9.85204 18.8763 8.54036C18.8763 7.22869 17.813 6.16536 16.5013 6.16536ZM12.543 8.54036C12.543 6.35424 14.3152 4.58203 16.5013 4.58203C18.6874 4.58203 20.4596 6.35424 20.4596 8.54036C20.4596 10.7265 18.6874 12.4987 16.5013 12.4987C14.3152 12.4987 12.543 10.7265 12.543 8.54036Z" fill="#292B31"/>
<rect x="11.2227" y="14.6094" width="6.33333" height="5.27778" rx="2" fill="white"/>
<path fill-rule="evenodd" clip-rule="evenodd" d="M16.5015 14.8763C13.7763 14.8763 12.3437 15.842 11.6289 17.0119C11.3802 17.4191 11.4428 17.8032 11.7464 18.156C12.0777 18.5409 12.6767 18.8346 13.3349 18.8346H19.6682C20.3264 18.8346 20.9254 18.5409 21.2567 18.156C21.5603 17.8032 21.6229 17.4191 21.3742 17.0119C20.6594 15.842 19.2268 14.8763 16.5015 14.8763ZM10.2778 16.1865C11.346 14.4379 13.364 13.293 16.5015 13.293C19.6391 13.293 21.6571 14.4379 22.7253 16.1865C23.3883 17.2718 23.1346 18.4013 22.4568 19.1889C21.8065 19.9444 20.7589 20.418 19.6682 20.418H13.3349C12.2442 20.418 11.1966 19.9444 10.5463 19.1889C9.86855 18.4013 9.6148 17.2718 10.2778 16.1865Z" fill="#292B31"/>
</g>
<defs>
<clipPath id="clip0_6340_11146">
<rect width="24" height="24" fill="white"/>
</clipPath>
</defs>
</svg>
