<svg width="24" height="24" viewBox="0 0 24 24" fill="none" xmlns="http://www.w3.org/2000/svg">
<path fill-rule="evenodd" clip-rule="evenodd" d="M12 4C10.3431 4 9 5.34315 9 7C9 8.65685 10.3431 10 12 10C13.6569 10 15 8.65685 15 7C15 5.34315 13.6569 4 12 4ZM7 7C7 4.23858 9.23858 2 12 2C14.7614 2 17 4.23858 17 7C17 9.76142 14.7614 12 12 12C9.23858 12 7 9.76142 7 7Z" fill="#292B31"/>
<path fill-rule="evenodd" clip-rule="evenodd" d="M11.9991 15C8.55663 15 6.747 16.2198 5.84421 17.6976C5.53003 18.212 5.60906 18.6971 5.99263 19.1428C6.41105 19.629 7.16767 20 7.99908 20H15.9991C16.8305 20 17.5871 19.629 18.0055 19.1428C18.3891 18.6971 18.4681 18.212 18.1539 17.6976C17.2512 16.2198 15.4415 15 11.9991 15ZM4.13747 16.655C5.48677 14.4462 8.03592 13 11.9991 13C15.9622 13 18.5114 14.4462 19.8607 16.655C20.6981 18.0259 20.3776 19.4526 19.5214 20.4474C18.7001 21.4018 17.3768 22 15.9991 22H7.99908C6.62135 22 5.29804 21.4018 4.47672 20.4474C3.62055 19.4526 3.30002 18.0259 4.13747 16.655Z" fill="#292B31"/>
</svg>
