<svg width="136" height="22" viewBox="0 0 136 22" fill="none" xmlns="http://www.w3.org/2000/svg">
<path d="M0.761719 21H13.7227V17.1992H5.41016V1.20312H0.761719V21Z" fill="white"/>
<path d="M20.8047 1.20312H16.1562V21H20.8047V1.20312Z" fill="white"/>
<path d="M40.6016 1.20312H35.9531V12.8242H35.7891L27.832 1.20312H23.8125V21H28.4609V9.37891H28.5977L36.6367 21H40.6016V1.20312Z" fill="white"/>
<path d="M43.6094 21H48.2578V15.5859L50.2266 13.1523L55.2305 21H60.8086L53.6172 10.0352L60.6992 1.20312H55.1758L48.5312 9.65234H48.2578V1.20312H43.6094V21Z" fill="white"/>
<path d="M62.5586 21H67.207V14.793H70.5156C75.0547 14.793 77.8574 12.0996 77.8438 8.01172C77.8574 3.97852 75.1094 1.20312 70.6523 1.20312H62.5586V21ZM67.207 11.1016V4.97656H69.668C71.8691 4.97656 73.0312 6.16602 73.0312 8.01172C73.0312 9.88477 71.8691 11.1152 69.668 11.1016H67.207Z" fill="white"/>
<path d="M98.7617 11.1016C98.7754 4.56641 94.6602 0.929688 89.3555 0.929688C84.0234 0.929688 79.9492 4.56641 79.9492 11.1016C79.9492 17.5957 84.0234 21.2734 89.3555 21.2734C94.6602 21.2734 98.7754 17.623 98.7617 11.1016ZM84.707 11.1016C84.707 7.16406 86.4707 5.01758 89.3555 5.03125C92.2539 5.01758 94.0176 7.16406 94.0039 11.1016C94.0176 15.0391 92.2539 17.1719 89.3555 17.1719C86.4707 17.1719 84.707 15.0391 84.707 11.1016Z" fill="white"/>
<path d="M120.09 11.1016C120.104 4.56641 115.988 0.929688 110.684 0.929688C105.352 0.929688 101.277 4.56641 101.277 11.1016C101.277 17.5957 105.352 21.2734 110.684 21.2734C115.988 21.2734 120.104 17.623 120.09 11.1016ZM106.035 11.1016C106.035 7.16406 107.799 5.01758 110.684 5.03125C113.582 5.01758 115.346 7.16406 115.332 11.1016C115.346 15.0391 113.582 17.1719 110.684 17.1719C107.799 17.1719 106.035 15.0391 106.035 11.1016Z" fill="white"/>
<path d="M122.852 21H135.812V17.1992H127.5V1.20312H122.852V21Z" fill="white"/>
<path d="M16 14H21V17H16V14Z" fill="#6E56FF"/>
</svg>
