<svg width="24" height="24" viewBox="0 0 24 24" fill="none" xmlns="http://www.w3.org/2000/svg">
<path fill-rule="evenodd" clip-rule="evenodd" d="M12.0001 3.5C11.503 3.5 11.1001 3.90294 11.1001 4.4V11.0998H4.4C3.90294 11.0998 3.5 11.5027 3.5 11.9998C3.5 12.4969 3.90294 12.8998 4.4 12.8998H11.1001V19.6C11.1001 20.0971 11.503 20.5 12.0001 20.5C12.4972 20.5 12.9001 20.0971 12.9001 19.6V12.8998H19.6C20.0971 12.8998 20.5 12.4969 20.5 11.9998C20.5 11.5027 20.0971 11.0998 19.6 11.0998H12.9001V4.4C12.9001 3.90294 12.4972 3.5 12.0001 3.5Z" fill="#424852"/>
</svg>
