<svg width="24" height="24" viewBox="0 0 24 24" fill="none" xmlns="http://www.w3.org/2000/svg">
<circle cx="12" cy="12" r="12" fill="#E6EAF1"/>
<path d="M12.6402 14.2096H10.8314L10.5 6.75H12.9716L12.6402 14.2096ZM10.5 16.8213C10.5 16.3417 10.6197 16.0081 10.859 15.8204C11.0983 15.6223 11.3883 15.5233 11.7289 15.5233C12.0603 15.5233 12.341 15.6223 12.5712 15.8204C12.8105 16.0081 12.9302 16.3417 12.9302 16.8213C12.9302 17.28 12.8105 17.6137 12.5712 17.8222C12.341 18.0203 12.0603 18.1193 11.7289 18.1193C11.3883 18.1193 11.0983 18.0203 10.859 17.8222C10.6197 17.6137 10.5 17.28 10.5 16.8213Z" fill="#B0B8C1"/>
</svg>
