<svg width="24" height="24" viewBox="0 0 24 24" fill="none" xmlns="http://www.w3.org/2000/svg">
<g clip-path="url(#clip0_1325_3916)">
<path d="M23 6H1V23H23V6Z" fill="#A07EFF"/>
<path d="M22 7V22H2V7H22ZM23 5H1C0.734784 5 0.48043 5.10543 0.292893 5.29297C0.105357 5.48051 0 5.73478 0 6V23C0 23.2652 0.105357 23.5195 0.292893 23.707C0.48043 23.8946 0.734784 24 1 24H23C23.2652 24 23.5196 23.8946 23.7071 23.707C23.8946 23.5195 24 23.2652 24 23V6C24 5.73478 23.8946 5.48051 23.7071 5.29297C23.5196 5.10543 23.2652 5 23 5Z" fill="#A07EFF"/>
<path d="M1 2V1H8.46L9.13 2H1Z" fill="#A07EFF"/>
<path d="M9 0H1C0.734784 0 0.48043 0.105432 0.292893 0.292969C0.105357 0.480505 0 0.734784 0 1V3H11L9 0Z" fill="#A07EFF"/>
</g>
<defs>
<clipPath id="clip0_1325_3916">
<rect width="24" height="24" fill="white"/>
</clipPath>
</defs>
</svg>
