<svg width="46" height="46" viewBox="0 0 46 46" fill="none" xmlns="http://www.w3.org/2000/svg">
<g clip-path="url(#clip0_1351_1555)">
<path d="M44.0832 11.5H1.9165V44.0833H44.0832V11.5Z" fill="#A07EFF"/>
<path d="M42.1667 13.4163V42.1663H3.83333V13.4163H42.1667ZM44.0833 9.58301H1.91667C1.40833 9.58301 0.920823 9.78509 0.561379 10.1445C0.201934 10.504 0 10.9913 0 11.4997V44.083C0 44.5913 0.201934 45.0787 0.561379 45.4382C0.920823 45.7976 1.40833 45.9997 1.91667 45.9997H44.0833C44.5917 45.9997 45.0792 45.7976 45.4386 45.4382C45.7981 45.0787 46 44.5913 46 44.083V11.4997C46 10.9913 45.7981 10.504 45.4386 10.1445C45.0792 9.78509 44.5917 9.58301 44.0833 9.58301Z" fill="#A07EFF"/>
<path d="M1.9165 3.83366V1.91699H16.2148L17.499 3.83366H1.9165Z" fill="#A07EFF"/>
<path d="M17.25 0H1.91667C1.40834 0 0.920823 0.202079 0.561379 0.561523C0.201934 0.920968 0 1.40833 0 1.91667V5.75H21.0833L17.25 0Z" fill="#A07EFF"/>
</g>
<defs>
<clipPath id="clip0_1351_1555">
<rect width="46" height="46" fill="white"/>
</clipPath>
</defs>
</svg>
