<svg width="16" height="16" viewBox="0 0 16 16" fill="none" xmlns="http://www.w3.org/2000/svg">
<g clip-path="url(#clip0_1542_1155)">
<path d="M2.8042 13.0635H13.6653" stroke="#804DFF" stroke-width="2" stroke-miterlimit="10"/>
<path d="M2.8042 13.0631V11.3789L8.94309 5.28027L10.6384 6.96443L4.49948 13.0631H2.8042Z" fill="#804DFF"/>
<path d="M8.94314 5.94675L9.96787 6.96477L4.3012 12.5943H3.27648V11.5763L8.94314 5.94675ZM8.94314 4.61914L2.33203 11.1869V13.5325H4.69314L11.3043 6.96477L8.94314 4.61914Z" fill="#804DFF"/>
<path d="M11.3012 2.93566L10.5532 3.67871L12.2462 5.36056L12.9941 4.61751L11.3012 2.93566Z" fill="#804DFF"/>
<path d="M11.3044 3.60107L12.3291 4.61909L12.2488 4.69886L11.2241 3.68084L11.3044 3.60107ZM11.3044 2.46582C11.2419 2.46608 11.1801 2.47866 11.1225 2.50281C11.065 2.52697 11.0128 2.5622 10.9691 2.60652L9.8877 3.68084L12.2488 6.02647L13.3302 4.95215C13.3745 4.90854 13.4096 4.85665 13.4336 4.79948C13.4575 4.74231 13.4699 4.68102 13.4699 4.61909C13.4699 4.55716 13.4575 4.49587 13.4336 4.4387C13.4096 4.38153 13.3745 4.32964 13.3302 4.28603L11.6396 2.60652C11.5959 2.5622 11.5438 2.52697 11.4862 2.50281C11.4286 2.47866 11.3668 2.46608 11.3044 2.46582Z" fill="#804DFF"/>
</g>
<defs>
<clipPath id="clip0_1542_1155">
<rect width="11.3333" height="11.0667" fill="white" transform="translate(2.33203 2.46582)"/>
</clipPath>
</defs>
</svg>
