<svg width="18" height="17" viewBox="0 0 18 17" fill="none" xmlns="http://www.w3.org/2000/svg">
<g clip-path="url(#clip0_1388_1672)">
<path d="M1.26367 15.8867H17.4387" stroke="#804DFF" stroke-width="2" stroke-miterlimit="10"/>
<path d="M1.26367 15.8869V13.3622L10.4061 4.21973L12.9308 6.74444L3.78839 15.8869H1.26367Z" fill="#804DFF"/>
<path d="M10.4062 5.21775L11.9323 6.74386L3.49316 15.183H1.96707V13.6569L10.4062 5.21775ZM10.4062 3.22754L0.560547 13.0732V16.5896H4.07687L13.9226 6.74386L10.4062 3.22754Z" fill="#804DFF"/>
<path d="M13.9181 0.705427L12.8042 1.81934L15.3255 4.34059L16.4394 3.22668L13.9181 0.705427Z" fill="#804DFF"/>
<path d="M13.9228 1.70184L15.4489 3.22796L15.3293 3.34754L13.8032 1.82143L13.9228 1.70184ZM13.9228 0C13.8297 0.000386268 13.7377 0.0192419 13.652 0.0554576C13.5663 0.0916733 13.4886 0.144478 13.4235 0.210928L11.813 1.82143L15.3293 5.33775L16.9398 3.72725C17.0057 3.66187 17.058 3.58408 17.0937 3.49838C17.1294 3.41268 17.1478 3.3208 17.1478 3.22796C17.1478 3.13512 17.1294 3.04324 17.0937 2.95754C17.058 2.87184 17.0057 2.79405 16.9398 2.72867L14.4221 0.210928C14.357 0.144478 14.2793 0.0916733 14.1936 0.0554576C14.1079 0.0192419 14.0158 0.000386268 13.9228 0Z" fill="#804DFF"/>
</g>
<defs>
<clipPath id="clip0_1388_1672">
<rect width="16.8783" height="16.59" fill="white" transform="translate(0.560547)"/>
</clipPath>
</defs>
</svg>
