<svg width="24" height="24" viewBox="0 0 24 24" fill="none" xmlns="http://www.w3.org/2000/svg">
<rect width="24" height="24" fill="white"/>
<path fill-rule="evenodd" clip-rule="evenodd" d="M13.5913 3.54861L19.4761 8.10779H19.4756C20.1164 8.59523 20.495 9.35278 20.5 10.1583V18.1641C20.5 18.2019 20.4992 18.2396 20.4977 18.2772V18.9957C20.4977 20.1002 19.6023 20.9957 18.4977 20.9957H17.8236C17.7714 20.9985 17.7191 21 17.6666 21H6.33336C6.28088 21 6.22854 20.9985 6.17641 20.9957H5.5C4.39543 20.9957 3.5 20.1002 3.5 18.9957V18.1641V12.9526V10.1583C3.49982 9.35651 3.86997 8.59974 4.50258 8.10779L10.3874 3.54861C10.8458 3.19307 11.4094 3 11.9893 3C12.5693 3 13.1327 3.19306 13.5913 3.54861Z" fill="#E6EAF1"/>
<rect x="7.5" y="16.5" width="9" height="1.5" rx="0.75" fill="white"/>
</svg>
