<svg width="24" height="24" viewBox="0 0 24 24" fill="none" xmlns="http://www.w3.org/2000/svg">
<path fill-rule="evenodd" clip-rule="evenodd" d="M22 18C22 19.6502 20.6676 20.9892 19.02 20.9999L5 21L4.99413 21C3.33997 20.9968 2 19.6549 2 18V16V8.59V6C2 5.89695 2.0052 5.79512 2.01534 5.69474C2.16749 4.18914 3.43293 3.0123 4.97577 3.0001H8.94432L8.96142 3C9.33414 3 9.69617 3.13647 9.98954 3.38724C10.2874 3.64182 10.497 3.99952 10.5834 4.40114L10.6389 4.65525C10.6959 4.92157 10.8341 5.15896 11.0306 5.32869C11.2275 5.49843 11.4712 5.59078 11.7221 5.59028H19.0416C20.6793 5.61255 22 6.94704 22 8.59V18Z" fill="#E6EAF1"/>
<path d="M11.6827 11.0652C12.0743 10.6771 12.4648 10.2901 12.8565 9.90186C12.955 9.80427 13.0546 9.70781 13.1655 9.62252C13.127 9.6517 13.0897 9.68089 13.0512 9.70998C13.2039 9.59448 13.3692 9.49792 13.5458 9.42392C13.5005 9.44296 13.4553 9.4621 13.4111 9.48001C13.599 9.40146 13.7959 9.34878 13.9974 9.32073C13.9476 9.32746 13.8967 9.33419 13.8469 9.34092C14.0529 9.314 14.26 9.314 14.466 9.34092C14.4162 9.33419 14.3652 9.32746 14.3154 9.32073C14.5168 9.34878 14.7139 9.40146 14.9017 9.48001C14.8564 9.46097 14.8112 9.44183 14.767 9.42392C14.9436 9.49906 15.11 9.59447 15.2617 9.70998C15.2232 9.6808 15.1859 9.65161 15.1473 9.62252C15.3001 9.7403 15.4383 9.87608 15.5571 10.0275C15.5276 9.9893 15.4982 9.95235 15.4688 9.91416C15.5888 10.069 15.6884 10.2373 15.7654 10.4167C15.7462 10.3718 15.7269 10.327 15.7088 10.2832C15.7881 10.4706 15.8412 10.6658 15.8684 10.8666C15.8616 10.8173 15.8548 10.7668 15.848 10.7174C15.874 10.917 15.874 11.1191 15.848 11.3187C15.8548 11.2693 15.8616 11.2188 15.8684 11.1695C15.8401 11.3702 15.7869 11.5666 15.7077 11.7529C15.7269 11.7079 15.7462 11.6631 15.7643 11.6194C15.6861 11.7988 15.5865 11.9671 15.4665 12.1219C15.496 12.0837 15.5254 12.0468 15.5548 12.0086C15.3918 12.215 15.1903 12.3945 15.0036 12.5796C14.7613 12.8197 14.5203 13.0586 14.278 13.2987C14.2205 13.3537 14.1627 13.4098 14.1061 13.4671C14.0032 13.5691 13.9408 13.7195 13.9408 13.8642C13.9408 14.0021 14.0019 14.1659 14.1061 14.2613C14.2137 14.3589 14.3552 14.4318 14.5068 14.4251C14.6574 14.4184 14.7989 14.3679 14.9075 14.2613C15.2618 13.9101 15.6161 13.559 15.9691 13.209C16.1944 12.9858 16.4128 12.7626 16.5826 12.4911C16.9074 11.9716 17.0569 11.3232 16.9799 10.7164C16.9573 10.5425 16.9312 10.3708 16.8803 10.2025C16.8293 10.0365 16.7603 9.8738 16.6822 9.71897C16.5442 9.44409 16.3472 9.18835 16.1219 8.97744C15.7201 8.60052 15.1971 8.32564 14.647 8.24491C14.4896 8.22132 14.3312 8.20113 14.1716 8.2C14.012 8.19886 13.8547 8.21904 13.6961 8.24036C13.4199 8.27959 13.1631 8.36942 12.9095 8.48492C12.5847 8.63415 12.3073 8.86071 12.0561 9.10982C11.6746 9.48789 11.2943 9.86481 10.9129 10.2429L10.8823 10.2732C10.7793 10.3752 10.717 10.5256 10.717 10.6703C10.717 10.8083 10.7781 10.9721 10.8823 11.0674C10.9898 11.165 11.1313 11.238 11.2829 11.2312C11.4326 11.2222 11.5741 11.1729 11.6827 11.0652L11.6827 11.0652Z" fill="white"/>
<path d="M12.3197 15.2383C11.9281 15.6265 11.5376 16.0135 11.1459 16.4017C11.0474 16.4993 10.9478 16.5958 10.8369 16.6811C10.8754 16.6519 10.9127 16.6227 10.9512 16.5936C10.7985 16.7091 10.6332 16.8057 10.4566 16.8797C10.5019 16.8606 10.5471 16.8415 10.5913 16.8236C10.4034 16.9021 10.2076 16.9548 10.005 16.9829C10.0548 16.9761 10.1057 16.9694 10.1556 16.9627C9.94953 16.9896 9.74245 16.9896 9.53643 16.9627C9.58624 16.9694 9.63719 16.9761 9.687 16.9829C9.48557 16.9548 9.28854 16.9021 9.10068 16.8236C9.14599 16.8426 9.19121 16.8618 9.23538 16.8797C9.0588 16.8045 8.8935 16.7091 8.74073 16.5936C8.77926 16.6228 8.81654 16.652 8.85507 16.6811C8.69886 16.561 8.55852 16.4219 8.4374 16.2671C8.46684 16.3053 8.49629 16.3422 8.52564 16.3804C8.4091 16.229 8.31283 16.0652 8.23702 15.8902C8.25623 15.9351 8.27554 15.9799 8.29361 16.0237C8.21436 15.8375 8.1612 15.6433 8.1329 15.4426C8.13969 15.4919 8.14648 15.5424 8.15327 15.5918C8.12612 15.3876 8.12612 15.1824 8.15327 14.9782C8.14648 15.0275 8.13969 15.078 8.1329 15.1274C8.1612 14.9278 8.21436 14.7325 8.29361 14.5463C8.2744 14.5912 8.25508 14.636 8.23702 14.6798C8.31283 14.5048 8.4091 14.341 8.52564 14.1895C8.49619 14.2277 8.46675 14.2647 8.4374 14.3029C8.5981 14.0975 8.79619 13.9203 8.9807 13.7375C9.22515 13.4952 9.47084 13.2517 9.71531 13.0094C9.7742 12.951 9.83415 12.8916 9.89304 12.8332C9.996 12.7312 10.0583 12.5808 10.0583 12.4361C10.0583 12.2982 9.99724 12.1343 9.89304 12.039C9.78549 11.9414 9.64399 11.8685 9.49237 11.8752C9.3418 11.8819 9.2003 11.9324 9.0917 12.039C8.72726 12.4002 8.36274 12.7615 7.99715 13.1238C7.76512 13.3538 7.54218 13.5894 7.37803 13.8744C7.23768 14.1167 7.12783 14.3871 7.07019 14.6608C7.01245 14.9312 6.98415 15.215 7.0091 15.491C7.03511 15.7714 7.08721 16.0452 7.19476 16.3054C7.25814 16.4579 7.32382 16.6071 7.40987 16.7474C7.49705 16.8888 7.59887 17.0211 7.70642 17.1456C8.07544 17.5754 8.60736 17.8905 9.16092 18.0195C9.70652 18.1475 10.3053 18.1283 10.8304 17.9242C10.9832 17.8648 11.136 17.7997 11.2786 17.7179C11.4224 17.6348 11.5559 17.5338 11.6849 17.4295C11.7675 17.3633 11.8423 17.2904 11.9169 17.2163C12.3063 16.8304 12.6957 16.4445 13.085 16.0586L13.1168 16.0272C13.2197 15.9251 13.282 15.7747 13.282 15.63C13.282 15.4921 13.221 15.3283 13.1168 15.2329C13.0092 15.1353 12.8677 15.0624 12.7161 15.0691C12.5699 15.0802 12.4284 15.1306 12.3197 15.2383L12.3197 15.2383Z" fill="white"/>
<path d="M10.2014 15.7299C10.3474 15.5852 10.4945 15.4394 10.6406 15.2946C10.9914 14.9469 11.3435 14.598 11.6944 14.2501L14.0623 11.9033C14.24 11.7271 14.4199 11.5521 14.5965 11.3738L14.6044 11.3659C14.7074 11.2639 14.7697 11.1135 14.7697 10.9688C14.7697 10.8309 14.7086 10.6671 14.6044 10.5717C14.4969 10.4741 14.3554 10.4012 14.2038 10.4079C14.0532 10.4146 13.9117 10.4651 13.8031 10.5717L9.94232 14.3982C9.76459 14.5744 9.58467 14.7494 9.40809 14.9277L9.40016 14.9356C9.2972 15.0376 9.23486 15.188 9.23486 15.3327C9.23486 15.4706 9.29595 15.6345 9.40016 15.7298C9.50771 15.8274 9.64921 15.9003 9.80082 15.8936C9.9513 15.8879 10.0928 15.8374 10.2015 15.7298L10.2014 15.7299Z" fill="white"/>
</svg>
