<svg width="24" height="24" viewBox="0 0 24 24" fill="none" xmlns="http://www.w3.org/2000/svg">
<rect width="24" height="24"/>
<path d="M2 18V6C2 4.34315 3.34315 3 5 3H8.75736C9.55301 3 10.3161 3.31607 10.8787 3.87868L11.6213 4.62132C12.1839 5.18393 12.947 5.5 13.7426 5.5H19C20.6569 5.5 22 6.84315 22 8.5V18C22 19.6569 20.6569 21 19 21H5C3.34315 21 2 19.6569 2 18Z" fill="#804DFF"/>
<path d="M11.6828 10.8653C12.0744 10.4772 12.4649 10.0901 12.8566 9.70191C12.9551 9.60432 13.0547 9.50786 13.1656 9.42257C13.127 9.45175 13.0898 9.48094 13.0512 9.51003C13.204 9.39452 13.3693 9.29797 13.5459 9.22397C13.5006 9.24301 13.4553 9.26215 13.4112 9.28006C13.599 9.20151 13.796 9.14883 13.9975 9.12078C13.9477 9.12751 13.8967 9.13424 13.8469 9.14096C14.0529 9.11405 14.26 9.11405 14.466 9.14096C14.4162 9.13424 14.3653 9.12751 14.3155 9.12078C14.5169 9.14883 14.7139 9.20151 14.9018 9.28006C14.8565 9.26102 14.8113 9.24188 14.7671 9.22397C14.9437 9.29911 15.11 9.39452 15.2617 9.51003C15.2232 9.48084 15.1859 9.45166 15.1474 9.42257C15.3002 9.54035 15.4383 9.67613 15.5571 9.82754C15.5277 9.78935 15.4983 9.7524 15.4689 9.71421C15.5889 9.86904 15.6885 10.0373 15.7655 10.2168C15.7462 10.1719 15.7269 10.1271 15.7089 10.0833C15.7881 10.2706 15.8413 10.4658 15.8684 10.6667C15.8616 10.6173 15.8548 10.5668 15.8481 10.5174C15.8741 10.7171 15.8741 10.9191 15.8481 11.1187C15.8548 11.0694 15.8616 11.0189 15.8684 10.9695C15.8401 11.1703 15.787 11.3666 15.7077 11.5529C15.7269 11.508 15.7462 11.4632 15.7643 11.4194C15.6862 11.5989 15.5866 11.7671 15.4666 11.922C15.4961 11.8838 15.5255 11.8468 15.5549 11.8087C15.3918 12.015 15.1904 12.1946 15.0036 12.3796C14.7614 12.6197 14.5204 12.8586 14.2781 13.0987C14.2205 13.1538 14.1628 13.2099 14.1062 13.2671C14.0032 13.3692 13.9409 13.5195 13.9409 13.6642C13.9409 13.8022 14.002 13.966 14.1062 14.0613C14.2137 14.1589 14.3552 14.2319 14.5069 14.2251C14.6574 14.2184 14.7989 14.1679 14.9075 14.0613C15.2618 13.7102 15.6161 13.359 15.9692 13.0091C16.1944 12.7858 16.4129 12.5626 16.5827 12.2911C16.9075 11.7717 17.0569 11.1233 16.98 10.5164C16.9573 10.3425 16.9313 10.1708 16.8804 10.0026C16.8294 9.83655 16.7604 9.67385 16.6823 9.51902C16.5442 9.24414 16.3473 8.9884 16.1219 8.77749C15.7201 8.40056 15.1972 8.12569 14.6471 8.04496C14.4897 8.02137 14.3313 8.00118 14.1716 8.00005C14.0121 7.99891 13.8547 8.01909 13.6962 8.04041C13.42 8.07964 13.1631 8.16947 12.9096 8.28497C12.5847 8.4342 12.3074 8.66075 12.0561 8.90987C11.6747 9.28794 11.2944 9.66486 10.9129 10.0429L10.8823 10.0733C10.7794 10.1753 10.717 10.3257 10.717 10.4704C10.717 10.6083 10.7781 10.7721 10.8823 10.8675C10.9899 10.9651 11.1314 11.038 11.283 11.0313C11.4326 11.0223 11.5741 10.9729 11.6827 10.8653L11.6828 10.8653Z" fill="white"/>
<path d="M12.3197 15.0384C11.9281 15.4265 11.5376 15.8136 11.1459 16.2018C11.0474 16.2994 10.9478 16.3958 10.8369 16.4811C10.8754 16.4519 10.9127 16.4227 10.9512 16.3937C10.7985 16.5092 10.6332 16.6057 10.4566 16.6797C10.5019 16.6607 10.5471 16.6415 10.5913 16.6236C10.4034 16.7022 10.2076 16.7549 10.005 16.7829C10.0548 16.7762 10.1057 16.7694 10.1556 16.7627C9.94953 16.7896 9.74245 16.7896 9.53643 16.7627C9.58624 16.7694 9.63719 16.7762 9.687 16.7829C9.48557 16.7549 9.28854 16.7022 9.10068 16.6236C9.14599 16.6427 9.19121 16.6618 9.23538 16.6797C9.0588 16.6046 8.8935 16.5092 8.74073 16.3937C8.77926 16.4228 8.81654 16.452 8.85507 16.4811C8.69886 16.3611 8.55852 16.222 8.4374 16.0672C8.46684 16.1053 8.49629 16.1423 8.52564 16.1805C8.4091 16.0291 8.31283 15.8652 8.23702 15.6902C8.25623 15.7351 8.27554 15.78 8.29361 15.8237C8.21436 15.6375 8.1612 15.4434 8.1329 15.2426C8.13969 15.292 8.14648 15.3425 8.15327 15.3918C8.12612 15.1877 8.12612 14.9824 8.15327 14.7782C8.14648 14.8276 8.13969 14.8781 8.1329 14.9275C8.1612 14.7278 8.21436 14.5325 8.29361 14.3463C8.2744 14.3913 8.25508 14.4361 8.23702 14.4798C8.31283 14.3048 8.4091 14.141 8.52564 13.9896C8.49619 14.0278 8.46675 14.0647 8.4374 14.1029C8.5981 13.8976 8.79619 13.7204 8.9807 13.5375C9.22515 13.2952 9.47084 13.0517 9.71531 12.8094C9.7742 12.7511 9.83415 12.6916 9.89304 12.6333C9.996 12.5312 10.0583 12.3809 10.0583 12.2362C10.0583 12.0982 9.99724 11.9344 9.89304 11.8391C9.78549 11.7415 9.64399 11.6685 9.49237 11.6752C9.3418 11.682 9.2003 11.7325 9.0917 11.8391C8.72726 12.2003 8.36274 12.5616 7.99715 12.9239C7.76512 13.1539 7.54218 13.3894 7.37803 13.6744C7.23768 13.9167 7.12783 14.1871 7.07019 14.4609C7.01245 14.7312 6.98415 15.0151 7.0091 15.291C7.03511 15.5715 7.08721 15.8452 7.19476 16.1054C7.25814 16.258 7.32382 16.4072 7.40987 16.5474C7.49705 16.6888 7.59887 16.8212 7.70642 16.9457C8.07544 17.3754 8.60736 17.6905 9.16092 17.8196C9.70652 17.9475 10.3053 17.9284 10.8304 17.7243C10.9832 17.6649 11.136 17.5998 11.2786 17.5179C11.4224 17.4349 11.5559 17.3339 11.6849 17.2296C11.7675 17.1633 11.8423 17.0905 11.9169 17.0164C12.3063 16.6304 12.6957 16.2445 13.085 15.8587L13.1168 15.8272C13.2197 15.7252 13.282 15.5748 13.282 15.4301C13.282 15.2921 13.221 15.1283 13.1168 15.033C13.0092 14.9354 12.8677 14.8624 12.7161 14.8692C12.5699 14.8802 12.4284 14.9307 12.3197 15.0384L12.3197 15.0384Z" fill="white"/>
<path d="M10.2014 15.5299C10.3474 15.3852 10.4945 15.2394 10.6406 15.0946C10.9914 14.7469 11.3435 14.398 11.6944 14.0502L14.0623 11.7033C14.24 11.5272 14.4199 11.3522 14.5965 11.1739L14.6044 11.166C14.7074 11.0639 14.7697 10.9136 14.7697 10.7689C14.7697 10.6309 14.7086 10.4671 14.6044 10.3718C14.4969 10.2742 14.3554 10.2012 14.2038 10.2079C14.0532 10.2147 13.9117 10.2652 13.8031 10.3718L9.94232 14.1983C9.76459 14.3744 9.58467 14.5494 9.40809 14.7278L9.40016 14.7356C9.2972 14.8377 9.23486 14.988 9.23486 15.1327C9.23486 15.2707 9.29595 15.4345 9.40016 15.5298C9.50771 15.6274 9.64921 15.7004 9.80082 15.6937C9.9513 15.688 10.0928 15.6375 10.2015 15.5298L10.2014 15.5299Z" fill="white"/>
</svg>
