<svg width="24" height="24" viewBox="0 0 24 24" fill="none" xmlns="http://www.w3.org/2000/svg">
<rect x="3" y="3" width="18" height="18" rx="3" fill="#CFD4DE"/>
<path fill-rule="evenodd" clip-rule="evenodd" d="M15.0216 11.2608C15.0216 13.3379 13.3378 15.0216 11.2608 15.0216C9.18375 15.0216 7.49999 13.3379 7.49999 11.2608C7.49999 9.18381 9.18375 7.50005 11.2608 7.50005C13.3378 7.50005 15.0216 9.18381 15.0216 11.2608ZM14.3187 15.1673C13.4761 15.8278 12.4144 16.2216 11.2608 16.2216C8.52101 16.2216 6.29999 14.0006 6.29999 11.2608C6.29999 8.52107 8.52101 6.30005 11.2608 6.30005C14.0005 6.30005 16.2216 8.52107 16.2216 11.2608C16.2216 12.4145 15.8278 13.4762 15.1672 14.3188L17.7243 16.8758C17.9586 17.1101 17.9586 17.49 17.7243 17.7243C17.4899 17.9586 17.11 17.9586 16.8757 17.7243L14.3187 15.1673Z" fill="white"/>
</svg>
