<svg width="24" height="24" viewBox="0 0 24 24" fill="none" xmlns="http://www.w3.org/2000/svg">
<rect width="24" height="24" fill="white"/>
<path d="M11.667 11.2244C12.0782 10.8148 12.4883 10.4062 12.8995 9.99641C13.0029 9.8934 13.1075 9.79158 13.224 9.70155C13.1835 9.73236 13.1444 9.76316 13.1039 9.79387C13.2643 9.67195 13.4379 9.57003 13.6233 9.49192C13.5757 9.51202 13.5282 9.53222 13.4818 9.55113C13.6791 9.46821 13.8859 9.4126 14.0975 9.383C14.0452 9.3901 13.9917 9.3972 13.9394 9.4043C14.1557 9.3759 14.3731 9.3759 14.5895 9.4043C14.5372 9.3972 14.4837 9.3901 14.4314 9.383C14.6429 9.4126 14.8498 9.46821 15.047 9.55113C14.9994 9.53102 14.952 9.51082 14.9056 9.49192C15.091 9.57123 15.2657 9.67195 15.425 9.79387C15.3845 9.76306 15.3453 9.73226 15.3049 9.70155C15.4653 9.82587 15.6104 9.9692 15.7351 10.129C15.7042 10.0887 15.6733 10.0497 15.6425 10.0094C15.7685 10.1728 15.8731 10.3504 15.9539 10.5399C15.9337 10.4925 15.9134 10.4452 15.8944 10.399C15.9776 10.5967 16.0335 10.8028 16.062 11.0148C16.0548 10.9627 16.0477 10.9094 16.0406 10.8573C16.0679 11.068 16.0679 11.2812 16.0406 11.492C16.0477 11.4399 16.0548 11.3865 16.062 11.3344C16.0323 11.5464 15.9764 11.7536 15.8932 11.9502C15.9134 11.9028 15.9337 11.8555 15.9526 11.8093C15.8706 11.9988 15.766 12.1764 15.6401 12.3398C15.671 12.2995 15.7019 12.2605 15.7327 12.2202C15.5616 12.438 15.35 12.6276 15.1539 12.8229C14.8996 13.0763 14.6465 13.3285 14.3921 13.5819C14.3317 13.64 14.2711 13.6993 14.2116 13.7597C14.1035 13.8674 14.0381 14.0261 14.0381 14.1788C14.0381 14.3245 14.1022 14.4974 14.2116 14.598C14.3246 14.701 14.4731 14.778 14.6323 14.7709C14.7904 14.7638 14.939 14.7105 15.053 14.598C15.4251 14.2273 15.7971 13.8567 16.1678 13.4873C16.4043 13.2517 16.6336 13.016 16.8119 12.7295C17.153 12.1812 17.3099 11.4968 17.2291 10.8562C17.2053 10.6726 17.178 10.4914 17.1245 10.3138C17.071 10.1385 16.9985 9.96679 16.9165 9.80336C16.7715 9.51321 16.5647 9.24326 16.3281 9.02063C15.9062 8.62277 15.3572 8.33262 14.7795 8.24741C14.6143 8.2225 14.448 8.2012 14.2803 8.2C14.1128 8.1988 13.9476 8.2201 13.7811 8.24261C13.4911 8.28402 13.2214 8.37883 12.9552 8.50075C12.6141 8.65828 12.3229 8.89741 12.0591 9.16037C11.6585 9.55944 11.2592 9.95731 10.8587 10.3564L10.8266 10.3884C10.7185 10.4961 10.653 10.6548 10.653 10.8076C10.653 10.9532 10.7172 11.1261 10.8266 11.2267C10.9395 11.3297 11.0881 11.4067 11.2473 11.3996C11.4044 11.3901 11.553 11.338 11.667 11.2244L11.667 11.2244Z" fill="white"/>
<path d="M12.3357 15.6293C11.9245 16.039 11.5145 16.4476 11.1032 16.8573C10.9998 16.9603 10.8952 17.0622 10.7788 17.1522C10.8192 17.1214 10.8584 17.0906 10.8988 17.0599C10.7384 17.1818 10.5648 17.2837 10.3794 17.3618C10.427 17.3417 10.4745 17.3215 10.5209 17.3026C10.3236 17.3855 10.1179 17.4411 9.90523 17.4707C9.95753 17.4636 10.011 17.4565 10.0633 17.4494C9.847 17.4778 9.62957 17.4778 9.41325 17.4494C9.46555 17.4565 9.51905 17.4636 9.57135 17.4707C9.35985 17.4411 9.15297 17.3855 8.95571 17.3026C9.00329 17.3227 9.05077 17.3429 9.09715 17.3618C8.91174 17.2825 8.73817 17.1818 8.57777 17.0599C8.61822 17.0907 8.65737 17.1215 8.69783 17.1522C8.5338 17.0255 8.38645 16.8786 8.25927 16.7152C8.29018 16.7555 8.3211 16.7945 8.35192 16.8348C8.22955 16.675 8.12847 16.5021 8.04887 16.3174C8.06904 16.3648 8.08932 16.4121 8.10829 16.4583C8.02507 16.2617 7.96926 16.0568 7.93955 15.8449C7.94668 15.897 7.9538 15.9503 7.96093 16.0024C7.93242 15.7869 7.93242 15.5702 7.96093 15.3547C7.9538 15.4068 7.94668 15.4601 7.93955 15.5122C7.96926 15.3015 8.02507 15.0953 8.10829 14.8988C8.08812 14.9462 8.06784 14.9935 8.04887 15.0397C8.12847 14.855 8.22955 14.6821 8.35192 14.5222C8.321 14.5625 8.29009 14.6016 8.25927 14.6419C8.42801 14.4251 8.636 14.2381 8.82973 14.0451C9.08641 13.7893 9.34438 13.5323 9.60108 13.2765C9.66291 13.2149 9.72585 13.1522 9.78769 13.0906C9.8958 12.9829 9.96125 12.8241 9.96125 12.6714C9.96125 12.5258 9.8971 12.3529 9.78769 12.2522C9.67476 12.1492 9.52619 12.0722 9.36699 12.0793C9.20889 12.0864 9.06031 12.1397 8.94629 12.2522C8.56362 12.6335 8.18088 13.0149 7.79701 13.3973C7.55338 13.6401 7.31928 13.8887 7.14693 14.1896C6.99957 14.4453 6.88422 14.7308 6.8237 15.0197C6.76307 15.3051 6.73336 15.6047 6.75956 15.896C6.78686 16.192 6.84157 16.481 6.9545 16.7556C7.02105 16.9166 7.09001 17.0742 7.18036 17.2222C7.27191 17.3714 7.37882 17.5111 7.49174 17.6426C7.87921 18.0962 8.43773 18.4288 9.01896 18.565C9.59184 18.7 10.2205 18.6798 10.7719 18.4644C10.9323 18.4017 11.0929 18.333 11.2425 18.2466C11.3935 18.159 11.5337 18.0523 11.6692 17.9422C11.7559 17.8723 11.8344 17.7954 11.9128 17.7172C12.3216 17.3098 12.7305 16.9024 13.1393 16.4952L13.1726 16.4619C13.2807 16.3542 13.3461 16.1955 13.3461 16.0428C13.3461 15.8971 13.282 15.7242 13.1726 15.6236C13.0597 15.5206 12.9111 15.4436 12.7519 15.4507C12.5984 15.4624 12.4498 15.5156 12.3357 15.6293L12.3357 15.6293Z" fill="white"/>
<path d="M10.1115 16.1481C10.2648 15.9954 10.4193 15.8415 10.5727 15.6887C10.9411 15.3216 11.3107 14.9533 11.6792 14.5862L14.1655 12.1089C14.3521 11.923 14.541 11.7383 14.7264 11.5501L14.7347 11.5418C14.8428 11.434 14.9083 11.2753 14.9083 11.1226C14.9083 10.977 14.8442 10.804 14.7347 10.7034C14.6218 10.6004 14.4732 10.5234 14.314 10.5305C14.1559 10.5376 14.0074 10.5909 13.8933 10.7034L9.8395 14.7425C9.65289 14.9284 9.46398 15.1132 9.27857 15.3014L9.27024 15.3097C9.16213 15.4174 9.09668 15.5761 9.09668 15.7289C9.09668 15.8745 9.16082 16.0474 9.27024 16.148C9.38317 16.2511 9.53174 16.3281 9.69094 16.321C9.84894 16.315 9.99751 16.2617 10.1116 16.148L10.1115 16.1481Z" fill="white"/>
<rect width="24" height="24" fill="white"/>
<path d="M11.4294 8.20962C12.1342 7.50397 12.8372 6.80021 13.5422 6.09438C13.7195 5.91694 13.8988 5.74156 14.0984 5.58649C14.029 5.63955 13.9619 5.69261 13.8926 5.7455C14.1676 5.5355 14.4651 5.35995 14.7829 5.2254C14.7014 5.26002 14.62 5.29482 14.5405 5.32738C14.8786 5.18456 15.2331 5.08878 15.5959 5.03778C15.5062 5.05002 15.4145 5.06225 15.3248 5.07448C15.6957 5.02555 16.0684 5.02555 16.4392 5.07448C16.3496 5.06225 16.2579 5.05002 16.1682 5.03778C16.5308 5.08878 16.8855 5.18456 17.2236 5.32738C17.142 5.29276 17.0606 5.25796 16.9811 5.2254C17.299 5.36201 17.5984 5.53549 17.8715 5.7455C17.8022 5.69244 17.735 5.63938 17.6657 5.58649C17.9407 5.80063 18.1894 6.0475 18.4032 6.32279C18.3502 6.25337 18.2972 6.18617 18.2444 6.11675C18.4604 6.39825 18.6397 6.7042 18.7782 7.03052C18.7436 6.94886 18.7088 6.86738 18.6763 6.78778C18.819 7.12838 18.9147 7.48329 18.9635 7.84851C18.9513 7.75875 18.9391 7.66693 18.9269 7.57717C18.9737 7.94016 18.9737 8.30748 18.9269 8.67045C18.9391 8.58069 18.9513 8.48887 18.9635 8.39911C18.9126 8.76417 18.8169 9.12113 18.6743 9.45984C18.7088 9.37818 18.7436 9.29669 18.7761 9.2171C18.6355 9.54339 18.4562 9.84936 18.2403 10.1309C18.2933 10.0614 18.3463 9.99425 18.3991 9.92483C18.1057 10.3 17.7431 10.6265 17.4069 10.963C16.9708 11.3995 16.537 11.8338 16.1009 12.2704C15.9973 12.3705 15.8934 12.4725 15.7915 12.5765C15.6062 12.7621 15.494 13.0355 15.494 13.2986C15.494 13.5494 15.6039 13.8473 15.7915 14.0206C15.9851 14.198 16.2398 14.3307 16.5127 14.3184C16.7837 14.3062 17.0384 14.2144 17.2339 14.0206C17.8717 13.3821 18.5094 12.7437 19.1449 12.1074C19.5503 11.7015 19.9435 11.2957 20.2491 10.8021C20.8339 9.85763 21.1029 8.67871 20.9643 7.57529C20.9235 7.25916 20.8767 6.94699 20.785 6.64101C20.6933 6.33917 20.569 6.04336 20.4284 5.76185C20.18 5.26208 19.8254 4.7971 19.4198 4.41362C18.6966 3.7283 17.7553 3.22852 16.7651 3.08175C16.4818 3.03885 16.1967 3.00215 15.9093 3.00008C15.6221 2.99802 15.3389 3.03471 15.0535 3.07348C14.5564 3.1448 14.094 3.30812 13.6376 3.51812C13.0529 3.78946 12.5537 4.20137 12.1014 4.65431C11.4148 5.3417 10.7303 6.02702 10.0436 6.71442L9.98857 6.76955C9.80324 6.95509 9.69104 7.22848 9.69104 7.49156C9.69104 7.7424 9.801 8.04025 9.98857 8.21357C10.1822 8.39102 10.4369 8.52367 10.7098 8.51144C10.9791 8.49508 11.2338 8.40532 11.4293 8.20961L11.4294 8.20962Z" fill="#804DFF"/>
<path d="M12.5755 15.7969C11.8706 16.5025 11.1676 17.2063 10.4626 17.9121C10.2854 18.0896 10.106 18.265 9.90643 18.42C9.97578 18.367 10.0429 18.3139 10.1122 18.261C9.83726 18.471 9.53973 18.6466 9.22188 18.7811C9.30345 18.7465 9.38485 18.7117 9.46435 18.6791C9.1262 18.8219 8.77359 18.9177 8.40896 18.9687C8.49862 18.9565 8.59034 18.9443 8.67999 18.932C8.30915 18.981 7.93641 18.981 7.56557 18.932C7.65523 18.9443 7.74695 18.9565 7.8366 18.9687C7.47402 18.9177 7.11937 18.8219 6.78121 18.6791C6.86278 18.7138 6.94418 18.7486 7.02368 18.7811C6.70584 18.6445 6.4083 18.471 6.13332 18.261C6.20267 18.3141 6.26978 18.3671 6.33913 18.42C6.05795 18.2017 5.80533 17.9488 5.58731 17.6674C5.64031 17.7368 5.69332 17.804 5.74615 17.8734C5.53638 17.5981 5.36309 17.3002 5.22663 16.982C5.26122 17.0637 5.29598 17.1452 5.3285 17.2248C5.18584 16.8862 5.09016 16.5332 5.03923 16.1682C5.05145 16.258 5.06366 16.3498 5.07588 16.4395C5.02701 16.0683 5.02701 15.6951 5.07588 15.3238C5.06366 15.4136 5.05145 15.5054 5.03923 15.5952C5.09016 15.2322 5.18584 14.8771 5.3285 14.5386C5.29391 14.6203 5.25915 14.7018 5.22663 14.7813C5.36309 14.4631 5.53638 14.1653 5.74615 13.89C5.69315 13.9594 5.64015 14.0266 5.58731 14.096C5.87659 13.7227 6.23314 13.4005 6.56526 13.068C7.00527 12.6275 7.44751 12.1848 7.88756 11.7442C7.99356 11.6381 8.10146 11.5301 8.20747 11.424C8.3928 11.2384 8.505 10.965 8.505 10.7019C8.505 10.4511 8.39504 10.1532 8.20747 9.97992C8.01387 9.80248 7.75918 9.66983 7.48627 9.68206C7.21524 9.69429 6.96053 9.78611 6.76507 9.97992C6.10907 10.6367 5.45294 11.2935 4.79487 11.9524C4.37722 12.3705 3.97592 12.7987 3.68045 13.3169C3.42783 13.7575 3.23009 14.2492 3.12635 14.7469C3.02241 15.2384 2.97147 15.7545 3.01638 16.2562C3.06319 16.7661 3.15698 17.2639 3.35057 17.7369C3.46466 18.0143 3.58288 18.2856 3.73776 18.5406C3.8947 18.7977 4.07797 19.0383 4.27155 19.2647C4.93579 20.046 5.89325 20.619 6.88965 20.8536C7.87173 21.0862 8.9495 21.0514 9.89475 20.6803C10.1697 20.5723 10.4449 20.4539 10.7015 20.3051C10.9603 20.1542 11.2007 19.9705 11.4328 19.7808C11.5815 19.6604 11.7161 19.5279 11.8505 19.3932C12.5514 18.6915 13.2523 17.9898 13.953 17.2883L14.0101 17.2311C14.1955 17.0455 14.3077 16.7722 14.3077 16.5091C14.3077 16.2582 14.1977 15.9604 14.0101 15.7871C13.8166 15.6096 13.5619 15.477 13.289 15.4892C13.0258 15.5093 12.7711 15.601 12.5755 15.7969L12.5755 15.7969Z" fill="#804DFF"/>
<path d="M8.7627 16.6907C9.02547 16.4276 9.29033 16.1624 9.55324 15.8992C10.1848 15.267 10.8184 14.6326 11.4501 14.0002L15.7123 9.73321C16.0322 9.41295 16.3561 9.09473 16.6739 8.77053L16.6882 8.75623C16.8735 8.57069 16.9857 8.29729 16.9857 8.03421C16.9857 7.78338 16.8758 7.48553 16.6882 7.3122C16.4946 7.13476 16.2399 7.0021 15.967 7.01433C15.696 7.02656 15.4413 7.11839 15.2458 7.3122L8.29636 14.2695C7.97646 14.5897 7.65261 14.908 7.33476 15.2322L7.32048 15.2465C7.13515 15.432 7.02295 15.7054 7.02295 15.9685C7.02295 16.2193 7.13291 16.5172 7.32048 16.6905C7.51407 16.8679 7.76877 17.0006 8.04168 16.9884C8.31254 16.978 8.56724 16.8862 8.76288 16.6905L8.7627 16.6907Z" fill="#804DFF"/>
<rect width="24" height="24" fill="white"/>
<rect x="3" y="3" width="18" height="18" rx="3" fill="#E6EAF1"/>
<rect x="7" y="11" width="10" height="1.5" rx="0.75" fill="white"/>
<rect x="11.25" y="6.75" width="1.5" height="10" rx="0.75" fill="white"/>
</svg>
