<svg width="24" height="24" viewBox="0 0 24 24" fill="none" xmlns="http://www.w3.org/2000/svg">
<path d="M21 17.5C21.5523 17.5 22 17.0523 22 16.5C22 15.9477 21.5523 15.5 21 15.5V17.5ZM15.6 15.5C15.0477 15.5 14.6 15.9477 14.6 16.5C14.6 17.0523 15.0477 17.5 15.6 17.5V15.5ZM17.3 19.1999C17.3 19.7521 17.7477 20.1999 18.3 20.1999C18.8523 20.1999 19.3 19.7521 19.3 19.1999H17.3ZM19.3 13.7999C19.3 13.2476 18.8523 12.7999 18.3 12.7999C17.7477 12.7999 17.3 13.2476 17.3 13.7999H19.3ZM13.8964 20.8045C14.4431 20.726 14.8227 20.2192 14.7442 19.6725C14.6657 19.1259 14.1589 18.7463 13.6123 18.8248L13.8964 20.8045ZM12.8957 14.6017C13.445 14.6593 13.937 14.2607 13.9945 13.7115C14.0521 13.1622 13.6535 12.6702 13.1043 12.6126L12.8957 14.6017ZM11 19C8.65249 19 6.80538 18.6209 5.58506 18.0649C4.30982 17.4839 4 16.8648 4 16.5H2C2 18.0682 3.25079 19.1991 4.75584 19.8849C6.31583 20.5956 8.46872 21 11 21V19ZM4 16.5C4 16.5942 3.95168 16.4771 4.32372 16.1851C4.66038 15.9209 5.19341 15.6364 5.89797 15.3751C7.29943 14.8553 9.18135 14.5 11 14.5V12.5C8.95266 12.5 6.83457 12.8946 5.20254 13.4999C4.39035 13.8011 3.64824 14.1728 3.08897 14.6118C2.56507 15.0229 2 15.6557 2 16.5H4ZM13 7.05501C13 8.05565 12.1063 9 11 9V11C13.2074 11 15 9.16361 15 7.05501H13ZM11 9C9.89374 9 9 8.05565 9 7.05501H7C7 9.16361 8.79255 11 11 11V9ZM9 7.05501C9 6.00718 9.93986 5 11 5V3C8.74643 3 7 4.99361 7 7.05501H9ZM11 5C12.0601 5 13 6.00718 13 7.05501H15C15 4.99361 13.2536 3 11 3V5ZM21 15.5H18.3V17.5H21V15.5ZM18.3 15.5H15.6V17.5H18.3V15.5ZM19.3 19.1999V16.5H17.3V19.1999H19.3ZM19.3 16.5V13.7999H17.3V16.5H19.3ZM13.6123 18.8248C12.8262 18.9376 11.952 19 11 19V21C12.0382 21 13.0079 20.932 13.8964 20.8045L13.6123 18.8248ZM11 14.5C11.6077 14.5 12.251 14.5342 12.8957 14.6017L13.1043 12.6126C12.3936 12.5381 11.6807 12.5 11 12.5V14.5Z" fill="black"/>
</svg>
