<svg width="132" height="20" viewBox="0 0 132 20" fill="none" xmlns="http://www.w3.org/2000/svg">
<path d="M0 19.7312H12.9376V15.9946H4.64006V0.268817H0V19.7312Z" fill="#7058FF"/>
<path d="M20.0069 0.268817H15.3668V19.7312H20.0069V0.268817Z" fill="#7058FF"/>
<path d="M39.7681 0.268817H35.128V11.6935H34.9642L27.0215 0.268817H23.0092V19.7312H27.6493V8.30645H27.7858L35.8104 19.7312H39.7681V0.268817Z" fill="#7058FF"/>
<path d="M42.7705 19.7312H47.4105V14.4086L49.3757 12.0161L54.3706 19.7312H59.9387L52.7602 8.95161L59.8295 0.268817H54.316L47.6835 8.57527H47.4105V0.268817H42.7705V19.7312Z" fill="#7058FF"/>
<path d="M61.6855 19.7312H66.3256V13.629H69.6282C74.1591 13.629 76.9568 10.9812 76.9431 6.96237C76.9568 2.99731 74.2137 0.268817 69.7647 0.268817H61.6855V19.7312ZM66.3256 10V3.97849H68.7821C70.9793 3.97849 72.1393 5.14785 72.1393 6.96237C72.1393 8.80376 70.9793 10.0134 68.7821 10H66.3256Z" fill="#7058FF"/>
<path d="M97.0124 10C97.026 3.57527 92.9182 0 87.6231 0C82.3007 0 78.2338 3.57527 78.2338 10C78.2338 16.3844 82.3007 20 87.6231 20C92.9182 20 97.026 16.4113 97.0124 10ZM82.983 10C82.983 6.12903 84.7435 4.01882 87.6231 4.03226C90.5163 4.01882 92.2768 6.12903 92.2631 10C92.2768 13.871 90.5163 15.9677 87.6231 15.9677C84.7435 15.9677 82.983 13.871 82.983 10Z" fill="#7058FF"/>
<path d="M117.284 10C117.298 3.57527 113.19 0 107.895 0C102.573 0 98.5058 3.57527 98.5058 10C98.5058 16.3844 102.573 20 107.895 20C113.19 20 117.298 16.4113 117.284 10ZM103.255 10C103.255 6.12903 105.016 4.01882 107.895 4.03226C110.788 4.01882 112.549 6.12903 112.535 10C112.549 13.871 110.788 15.9677 107.895 15.9677C105.016 15.9677 103.255 13.871 103.255 10Z" fill="#7058FF"/>
<path d="M119.062 19.7312H132V15.9946H123.702V0.268817H119.062V19.7312Z" fill="#7058FF"/>
<path d="M15.2109 12.8495H20.2019V15.7988H15.2109V12.8495Z" fill="white"/>
</svg>
