<svg width="48" height="48" viewBox="0 0 48 48" fill="none" xmlns="http://www.w3.org/2000/svg">
<rect width="48" height="48" fill="white"/>
<path d="M34.8331 35.9999C35.408 35.9999 35.959 35.745 36.3653 35.291C36.7715 34.8367 37 34.221 37 33.579V17.8749C37 17.2326 36.7715 16.6169 36.3653 16.1629C35.959 15.709 35.4079 15.4537 34.8331 15.4537H23.6388C23.3126 15.4544 22.9957 15.3312 22.7398 15.1049C22.4843 14.8786 22.3047 14.5621 22.2305 14.207L22.1584 13.8682C22.0461 13.3327 21.7736 12.8558 21.3864 12.5163C20.9992 12.1769 20.52 11.9945 20.0276 12.0001H13.1666C12.592 12.0001 12.041 12.2551 11.6347 12.709C11.2285 13.163 11 13.779 11 14.421V33.5791C11 34.2211 11.2285 34.8368 11.6347 35.2911C12.041 35.7451 12.592 36 13.1666 36L34.8331 35.9999Z" fill="#804DFF"/>
<rect width="48" height="48" fill="white"/>
<path d="M34.8331 35.9999C35.408 35.9999 35.959 35.745 36.3653 35.291C36.7715 34.8367 37 34.221 37 33.579V17.8749C37 17.2326 36.7715 16.6169 36.3653 16.1629C35.959 15.709 35.4079 15.4537 34.8331 15.4537H23.6388C23.3126 15.4544 22.9957 15.3312 22.7398 15.1049C22.4843 14.8786 22.3047 14.5621 22.2305 14.207L22.1584 13.8682C22.0461 13.3327 21.7736 12.8558 21.3864 12.5163C20.9992 12.1769 20.52 11.9945 20.0276 12.0001H13.1666C12.592 12.0001 12.041 12.2551 11.6347 12.709C11.2285 13.163 11 13.779 11 14.421V33.5791C11 34.2211 11.2285 34.8368 11.6347 35.2911C12.041 35.7451 12.592 36 13.1666 36L34.8331 35.9999Z" fill="#804DFF"/>
<rect x="18" y="20" width="12" height="1.5" rx="0.75" fill="white"/>
</svg>
