<svg width="48" height="48" viewBox="0 0 48 48" fill="none" xmlns="http://www.w3.org/2000/svg">
<rect width="48" height="48" fill="white"/>
<path d="M31.4961 29.6065H35.5419L27.6791 37.5383L27.6794 33.457C27.6794 32.4359 28.0815 31.4565 28.7974 30.7343C29.513 30.0124 30.4839 29.6066 31.496 29.6066L31.4961 29.6065ZM36 15.3907V28.0658L31.4961 28.0661C30.0791 28.0661 28.72 28.634 27.7176 29.6448C26.7155 30.6558 26.1526 32.0271 26.1526 33.4566V38H17.3435C15.9262 38 14.5671 37.4321 13.565 36.4213C12.5629 35.4104 12 34.039 12 32.6095V15.3904C12 13.9607 12.5629 12.5897 13.565 11.5787C14.5671 10.5678 15.9262 10 17.3435 10H30.6562C32.0736 10 33.4326 10.5679 34.4348 11.5787C35.4369 12.5897 35.9998 13.9607 35.9998 15.3904L36 15.3907ZM25.114 29.8219C25.114 29.6177 25.0337 29.4221 24.8905 29.2776C24.7476 29.1331 24.5533 29.0521 24.3509 29.0521H18.5493C18.1278 29.0521 17.7859 29.3967 17.7859 29.8219C17.7859 30.0261 17.8662 30.2221 18.0094 30.3666C18.1527 30.5111 18.3469 30.5921 18.5493 30.5921H24.3509C24.5533 30.5921 24.7476 30.5111 24.8905 30.3666C25.0337 30.2221 25.114 30.0261 25.114 29.8219L25.114 29.8219ZM30.2133 24.0002H30.2136C30.2136 23.796 30.133 23.6004 29.9901 23.4559C29.8468 23.3114 29.6526 23.2304 29.4501 23.2304H18.5497C18.1281 23.2304 17.7862 23.575 17.7862 24.0003C17.7862 24.4258 18.1281 24.7704 18.5497 24.7704H29.4501C29.6526 24.7704 29.8468 24.6894 29.9901 24.5449C30.133 24.4004 30.2136 24.2045 30.2136 24.0003L30.2133 24.0002ZM30.2133 18.1786H30.2136C30.2136 17.9744 30.133 17.7787 29.9901 17.6342C29.8468 17.4897 29.6526 17.4087 29.4501 17.4087H18.5497C18.1281 17.4087 17.7862 17.7533 17.7862 18.1786C17.7862 18.3828 17.8665 18.5787 18.0097 18.7232C18.153 18.8677 18.3472 18.9487 18.5497 18.9487H29.4501C29.6526 18.9487 29.8468 18.8677 29.9901 18.7232C30.133 18.5787 30.2136 18.3828 30.2136 18.1786L30.2133 18.1786Z" fill="#804DFF"/>
</svg>
